<?xml version="1.0" encoding="UTF-8" standalone="no"?>
<!-- Created with Inkscape (http://www.inkscape.org/) -->

<svg
   xmlns:dc="http://purl.org/dc/elements/1.1/"
   xmlns:cc="http://creativecommons.org/ns#"
   xmlns:rdf="http://www.w3.org/1999/02/22-rdf-syntax-ns#"
   xmlns:svg="http://www.w3.org/2000/svg"
   xmlns="http://www.w3.org/2000/svg"
   xmlns:sodipodi="http://sodipodi.sourceforge.net/DTD/sodipodi-0.dtd"
   xmlns:inkscape="http://www.inkscape.org/namespaces/inkscape"
   width="700"
   height="700"
   viewBox="0 0 185.20834 185.20834"
   version="1.1"
   id="svg1059"
   inkscape:version="0.92.3 (2405546, 2018-03-11)"
   sodipodi:docname="helbor-logo.svg"
   inkscape:export-filename="C:\Users\alex\sites\helbor-logo-0.png"
   inkscape:export-xdpi="561.73712"
   inkscape:export-ydpi="561.73712">
  <defs
     id="defs1053" />
  <sodipodi:namedview
     id="base"
     pagecolor="#ffffff"
     bordercolor="#666666"
     borderopacity="1.0"
     inkscape:pageopacity="0.0"
     inkscape:pageshadow="2"
     inkscape:zoom="0.35"
     inkscape:cx="-127.14286"
     inkscape:cy="560"
     inkscape:document-units="mm"
     inkscape:current-layer="layer1"
     showgrid="false"
     units="px"
     inkscape:window-width="1600"
     inkscape:window-height="838"
     inkscape:window-x="-8"
     inkscape:window-y="-8"
     inkscape:window-maximized="1" />
  <metadata
     id="metadata1056">
    <rdf:RDF>
      <cc:Work
         rdf:about="">
        <dc:format>image/svg+xml</dc:format>
        <dc:type
           rdf:resource="http://purl.org/dc/dcmitype/StillImage" />
        <dc:title></dc:title>
      </cc:Work>
    </rdf:RDF>
  </metadata>
  <g
     inkscape:label="Camada 1"
     inkscape:groupmode="layer"
     id="layer1"
     transform="translate(0,-111.79161)">
    <g
       id="g222"
       transform="matrix(1.5264978,0,0,-1.5264978,45.597495,195.12696)"
       inkscape:export-filename="C:\Users\alex\sites\helbor-logo-5.png"
       inkscape:export-xdpi="70.299179"
       inkscape:export-ydpi="70.299179">
      <path
         d="m 0,0 c 0,4.766 -3.704,8.629 -8.272,8.629 -4.569,0 -8.273,-3.863 -8.273,-8.629 0,-4.766 3.704,-8.629 8.273,-8.629 C -3.704,-8.629 0,-4.766 0,0 m -1.158,-4.402 h -14.228 l 7.11,13.027 z M -4.84,-4.098 V 1.771 L -6.921,5.579 V 2.612 l -2.86,-1.367 v 4.046 l -2.082,-3.809 v -5.58 h 2.082 V -0.9 l 2.86,1.367 v -4.565 z"
         style="fill:#1f386c;fill-opacity:1;fill-rule:nonzero;stroke:none"
         id="path224"
         inkscape:connector-curvature="0" />
    </g>
    <g
       id="g226"
       transform="matrix(1.5264978,0,0,-1.5264978,164.86674,193.56063)"
       inkscape:export-filename="C:\Users\alex\sites\helbor-logo-5.png"
       inkscape:export-xdpi="70.299179"
       inkscape:export-ydpi="70.299179">
      <path
         d="m 0,0 v 3.208 c -0.401,0.071 -0.757,0.118 -1.224,0.118 -2.359,0 -3.628,-1.344 -4.451,-2.76 H -5.72 v 2.43 H -8.791 V -9.508 h 3.071 v 6.04 c 0,2.902 2.203,3.775 3.761,3.775 C -1.424,0.307 -0.846,0.283 0,0 m -9.881,-3.256 c 0,3.445 -2.025,6.724 -7.299,6.724 -5.274,0 -7.299,-3.279 -7.299,-6.724 0,-3.444 2.025,-6.723 7.299,-6.723 5.274,0 7.299,3.279 7.299,6.723 m -3.204,0 c 0,-2.17 -1.113,-4.223 -4.095,-4.223 -2.982,0 -4.095,2.053 -4.095,4.223 0,2.17 1.113,4.223 4.095,4.223 2.982,0 4.095,-2.053 4.095,-4.223 m -11.972,-0.047 c 0,3.161 -1.958,6.629 -6.454,6.629 -1.847,0 -3.605,-0.613 -4.517,-2.123 h -0.045 V 7.62 h -3.071 V -9.508 h 3.071 v 1.723 h 0.045 c 0.223,-0.755 2.069,-2.195 4.517,-2.195 4.496,0 6.454,3.468 6.454,6.677 m -3.205,0 c 0,-2.123 -1.09,-4.175 -3.983,-4.175 -2.871,0 -3.961,2.052 -3.961,4.175 0,2.076 1.09,4.128 3.961,4.128 2.893,0 3.983,-2.052 3.983,-4.128 m -15.644,-6.205 h 3.071 V 7.62 h -3.071 z m -12.439,5.426 h 11.127 v 0.472 c 0,3.658 -2.004,7.078 -7.233,7.078 -4.184,0 -7.099,-2.666 -7.099,-6.842 0,-3.326 1.981,-6.605 7.3,-6.605 4.495,0 6.098,2.76 6.765,4.152 h -3.338 c -0.601,-1.039 -1.491,-1.794 -3.516,-1.794 -3.049,0 -3.94,2.148 -4.006,3.539 m 0,2.077 c 0.512,2.548 2.514,3.255 3.939,3.255 1.514,0 3.605,-0.755 3.983,-3.255 z m -7.959,-7.503 h 3.338 V 7.337 h -3.338 V 0.779 h -8.561 v 6.558 h -3.338 V -9.508 h 3.338 v 7.644 h 8.561 z"
         style="fill:#1f386c;fill-opacity:1;fill-rule:nonzero;stroke:none"
         id="path228"
         inkscape:connector-curvature="0" />
    </g>
    <g
       id="g230"
       transform="matrix(1.5264978,0,0,-1.5264978,161.99342,220.55111)"
       inkscape:export-filename="C:\Users\alex\sites\helbor-logo-5.png"
       inkscape:export-xdpi="70.299179"
       inkscape:export-ydpi="70.299179">
      <path
         d="m 0,0 -0.175,0.201 c -0.152,-0.158 -0.34,-0.32 -0.561,-0.485 -0.223,-0.164 -0.46,-0.314 -0.711,-0.448 -0.252,-0.134 -0.506,-0.247 -0.763,-0.338 -0.257,-0.092 -0.491,-0.137 -0.701,-0.137 -0.246,0 -0.448,0.069 -0.606,0.21 -0.157,0.14 -0.242,0.387 -0.254,0.741 0.187,0.17 0.339,0.326 0.456,0.466 0.117,0.14 0.176,0.241 0.176,0.302 0,0.049 -0.042,0.073 -0.123,0.073 -0.187,0 -0.345,-0.079 -0.474,-0.237 -0.128,-0.159 -0.222,-0.342 -0.28,-0.549 -0.07,-0.049 -0.187,-0.135 -0.351,-0.257 -0.164,-0.122 -0.342,-0.24 -0.535,-0.356 -0.193,-0.116 -0.386,-0.22 -0.579,-0.311 -0.193,-0.092 -0.347,-0.138 -0.465,-0.138 -0.151,0 -0.227,0.08 -0.227,0.238 0,0.147 0.067,0.33 0.201,0.549 0.135,0.22 0.325,0.433 0.57,0.641 0.246,0.207 0.544,0.387 0.895,0.539 0.35,0.153 0.742,0.229 1.175,0.229 h 0.193 c 0.07,0 0.14,-0.006 0.21,-0.018 0.023,0 0.07,0.009 0.14,0.027 0.071,0.018 0.106,0.076 0.106,0.174 0,0.049 -0.024,0.097 -0.07,0.146 C -2.8,1.311 -2.952,1.335 -3.21,1.335 -3.712,1.335 -4.171,1.241 -4.586,1.052 -5.001,0.863 -5.361,0.634 -5.665,0.366 -5.836,0.215 -5.983,0.06 -6.111,-0.099 c -0.417,-0.332 -0.869,-0.598 -1.36,-0.788 -0.55,-0.214 -1.07,-0.351 -1.561,-0.412 0.21,0.146 0.412,0.323 0.605,0.53 0.193,0.208 0.362,0.418 0.509,0.632 0.146,0.213 0.26,0.42 0.342,0.622 0.081,0.201 0.123,0.381 0.123,0.539 0,0.281 -0.147,0.421 -0.439,0.421 -0.187,0 -0.41,-0.085 -0.666,-0.256 C -8.816,1.018 -9.196,0.689 -9.698,0.201 -9.769,0.14 -9.833,0.082 -9.891,0.027 -9.95,-0.028 -10.014,-0.086 -10.084,-0.147 h 10e-4 c -0.056,-0.045 -0.115,-0.091 -0.177,-0.137 -0.222,-0.164 -0.459,-0.314 -0.71,-0.448 -0.251,-0.134 -0.506,-0.247 -0.763,-0.338 -0.257,-0.092 -0.491,-0.137 -0.701,-0.137 -0.246,0 -0.448,0.069 -0.605,0.21 -0.158,0.14 -0.243,0.387 -0.255,0.741 0.187,0.17 0.339,0.326 0.456,0.466 0.117,0.14 0.175,0.241 0.175,0.302 0,0.049 -0.041,0.073 -0.122,0.073 -0.187,0 -0.345,-0.079 -0.474,-0.237 -0.128,-0.159 -0.222,-0.342 -0.28,-0.549 -0.071,-0.049 -0.187,-0.135 -0.351,-0.257 -0.164,-0.122 -0.342,-0.24 -0.535,-0.356 -0.193,-0.116 -0.386,-0.22 -0.579,-0.311 -0.193,-0.092 -0.348,-0.138 -0.465,-0.138 -0.151,0 -0.227,0.08 -0.227,0.238 0,0.147 0.067,0.33 0.201,0.549 0.135,0.22 0.325,0.433 0.57,0.641 0.246,0.207 0.544,0.387 0.895,0.539 0.35,0.153 0.742,0.229 1.175,0.229 h 0.192 c 0.071,0 0.141,-0.006 0.211,-0.018 0.023,0 0.07,0.009 0.14,0.027 0.071,0.018 0.106,0.076 0.106,0.174 0,0.049 -0.024,0.097 -0.071,0.146 -0.046,0.049 -0.199,0.073 -0.455,0.073 -0.504,0 -0.963,-0.094 -1.377,-0.283 -0.415,-0.189 -0.775,-0.418 -1.079,-0.686 -0.146,-0.129 -0.276,-0.261 -0.391,-0.396 -0.104,-0.087 -0.225,-0.181 -0.363,-0.281 -0.269,-0.196 -0.552,-0.375 -0.85,-0.54 -0.299,-0.165 -0.594,-0.305 -0.886,-0.421 -0.292,-0.116 -0.538,-0.174 -0.737,-0.174 -0.269,0 -0.462,0.049 -0.579,0.147 -0.116,0.097 -0.175,0.219 -0.175,0.366 0,0.171 0.061,0.363 0.184,0.576 0.123,0.213 0.275,0.415 0.456,0.604 0.181,0.189 0.374,0.348 0.579,0.475 0.204,0.128 0.383,0.193 0.535,0.193 0.081,0 0.123,-0.031 0.123,-0.092 0,-0.037 -0.009,-0.067 -0.027,-0.091 -0.017,-0.025 -0.026,-0.049 -0.026,-0.074 0,-0.097 0.053,-0.146 0.158,-0.146 0.105,0 0.187,0.052 0.245,0.155 0.059,0.104 0.088,0.205 0.088,0.302 0,0.098 -0.035,0.174 -0.105,0.229 -0.07,0.055 -0.152,0.082 -0.246,0.082 -0.257,0 -0.529,-0.079 -0.815,-0.237 -0.287,-0.159 -0.547,-0.357 -0.781,-0.595 -0.233,-0.238 -0.43,-0.494 -0.587,-0.768 -0.158,-0.275 -0.237,-0.528 -0.237,-0.76 0,-0.207 0.076,-0.378 0.228,-0.512 0.152,-0.134 0.41,-0.201 0.772,-0.201 0.269,0 0.579,0.067 0.929,0.201 0.351,0.134 0.696,0.296 1.035,0.485 0.229,0.128 0.442,0.26 0.642,0.396 -0.088,-0.193 -0.134,-0.366 -0.134,-0.515 0,-0.305 0.164,-0.457 0.492,-0.457 0.105,0 0.239,0.033 0.403,0.1 0.163,0.067 0.339,0.156 0.526,0.266 0.187,0.11 0.383,0.234 0.588,0.375 0.204,0.14 0.394,0.283 0.57,0.43 v -0.11 c 0,-0.256 0.061,-0.482 0.184,-0.677 0.123,-0.195 0.336,-0.293 0.64,-0.293 0.269,0 0.567,0.058 0.894,0.174 0.327,0.116 0.643,0.256 0.947,0.421 0.304,0.164 0.582,0.338 0.834,0.521 0.237,0.173 0.413,0.323 0.53,0.453 l 0.268,0.242 c 0.233,0.208 0.455,0.387 0.666,0.54 0.21,0.152 0.38,0.229 0.509,0.229 0.116,0 0.175,-0.067 0.175,-0.202 0,-0.134 -0.059,-0.317 -0.175,-0.548 -0.117,-0.232 -0.267,-0.461 -0.448,-0.686 -0.181,-0.226 -0.38,-0.421 -0.596,-0.586 -0.216,-0.165 -0.424,-0.253 -0.623,-0.265 -0.058,0.012 -0.105,0.042 -0.14,0.092 -0.035,0.048 -0.064,0.14 -0.087,0.274 -0.012,0.097 -0.065,0.146 -0.159,0.146 -0.093,0 -0.175,-0.036 -0.245,-0.11 -0.07,-0.073 -0.105,-0.158 -0.105,-0.256 0,-0.207 0.076,-0.357 0.228,-0.448 0.152,-0.092 0.351,-0.137 0.596,-0.137 0.269,0 0.579,0.045 0.93,0.137 0.35,0.091 0.701,0.207 1.052,0.348 0.351,0.14 0.684,0.295 0.999,0.466 0.08,0.043 0.156,0.086 0.229,0.129 -0.104,-0.215 -0.158,-0.405 -0.158,-0.568 0,-0.305 0.163,-0.457 0.49,-0.457 0.106,0 0.24,0.033 0.404,0.1 0.164,0.067 0.339,0.156 0.526,0.266 0.187,0.11 0.383,0.234 0.588,0.375 0.204,0.14 0.394,0.283 0.57,0.43 v -0.11 c 0,-0.256 0.061,-0.482 0.184,-0.677 0.123,-0.195 0.336,-0.293 0.64,-0.293 0.269,0 0.567,0.058 0.894,0.174 0.328,0.116 0.643,0.256 0.948,0.421 0.303,0.164 0.581,0.338 0.833,0.521 C -0.301,-0.293 -0.117,-0.134 0,0 m -22.442,0 -0.176,0.201 c -0.14,-0.146 -0.342,-0.314 -0.605,-0.503 -0.263,-0.189 -0.541,-0.363 -0.833,-0.521 -0.292,-0.159 -0.588,-0.293 -0.885,-0.403 -0.299,-0.11 -0.553,-0.165 -0.764,-0.165 -0.304,0 -0.456,0.122 -0.456,0.366 0,0.098 0.03,0.211 0.088,0.339 0.059,0.128 0.123,0.253 0.193,0.375 0.07,0.122 0.134,0.231 0.193,0.329 0.058,0.098 0.088,0.171 0.088,0.22 0,0.036 -0.012,0.088 -0.035,0.155 -0.024,0.067 -0.059,0.101 -0.106,0.101 -0.023,0 -0.105,-0.046 -0.245,-0.137 -0.14,-0.092 -0.313,-0.211 -0.517,-0.357 -0.205,-0.147 -0.425,-0.299 -0.658,-0.458 -0.234,-0.158 -0.465,-0.311 -0.693,-0.457 -0.228,-0.146 -0.436,-0.265 -0.623,-0.357 -0.187,-0.091 -0.327,-0.137 -0.42,-0.137 -0.094,0 -0.141,0.067 -0.141,0.202 0,0.17 0.047,0.335 0.141,0.493 0.093,0.159 0.198,0.308 0.315,0.449 0.117,0.14 0.222,0.265 0.316,0.375 0.093,0.109 0.14,0.201 0.14,0.274 0,0.036 -0.012,0.082 -0.035,0.137 -0.024,0.055 -0.059,0.082 -0.105,0.082 -0.094,0 -0.254,-0.076 -0.482,-0.228 -0.228,-0.153 -0.495,-0.336 -0.798,-0.549 -0.305,-0.213 -0.629,-0.427 -0.974,-0.64 -0.345,-0.214 -0.681,-0.388 -1.008,-0.522 -0.035,0 -0.053,0.025 -0.053,0.073 0,0.098 0.041,0.232 0.123,0.403 0.082,0.171 0.169,0.353 0.263,0.549 0.094,0.195 0.181,0.378 0.263,0.549 0.082,0.17 0.123,0.298 0.123,0.384 0,0.207 -0.07,0.311 -0.211,0.311 -0.081,0 -0.175,-0.028 -0.28,-0.083 C -31.405,0.796 -31.51,0.728 -31.615,0.649 -31.72,0.57 -31.817,0.488 -31.904,0.402 -31.992,0.317 -32.059,0.25 -32.106,0.201 -32.176,0.14 -32.24,0.082 -32.299,0.027 c -0.058,-0.055 -0.123,-0.113 -0.193,-0.174 h 0.004 c -0.064,-0.053 -0.132,-0.107 -0.205,-0.164 -0.252,-0.196 -0.515,-0.375 -0.789,-0.54 -0.275,-0.165 -0.55,-0.305 -0.825,-0.421 -0.275,-0.116 -0.512,-0.174 -0.71,-0.174 -0.222,0 -0.374,0.049 -0.456,0.147 -0.082,0.097 -0.123,0.226 -0.123,0.384 0.234,0.134 0.471,0.274 0.711,0.421 0.239,0.146 0.452,0.295 0.639,0.448 0.187,0.152 0.339,0.299 0.457,0.439 0.116,0.14 0.175,0.265 0.175,0.375 0,0.085 -0.024,0.159 -0.07,0.22 -0.047,0.061 -0.135,0.091 -0.263,0.091 -0.164,0 -0.366,-0.058 -0.605,-0.174 -0.24,-0.116 -0.471,-0.268 -0.693,-0.457 -0.222,-0.189 -0.412,-0.409 -0.57,-0.659 -0.158,-0.25 -0.237,-0.509 -0.237,-0.777 0,-0.256 0.088,-0.455 0.263,-0.595 0.176,-0.14 0.363,-0.21 0.561,-0.21 0.269,0 0.57,0.067 0.904,0.201 0.333,0.134 0.657,0.296 0.973,0.485 0.316,0.189 0.602,0.387 0.86,0.595 0.238,0.192 0.414,0.351 0.531,0.481 0.039,0.034 0.078,0.069 0.117,0.104 0.082,0.073 0.164,0.153 0.246,0.238 0.093,0.097 0.169,0.146 0.228,0.146 0.023,0 0.035,-0.012 0.035,-0.037 0,-0.061 -0.041,-0.173 -0.123,-0.338 -0.082,-0.164 -0.173,-0.342 -0.272,-0.53 -0.099,-0.189 -0.19,-0.373 -0.272,-0.549 -0.082,-0.177 -0.122,-0.314 -0.122,-0.412 0,-0.061 0.032,-0.128 0.096,-0.201 0.064,-0.073 0.143,-0.11 0.237,-0.11 0.093,0 0.254,0.058 0.482,0.174 0.228,0.116 0.47,0.253 0.728,0.412 0.257,0.158 0.511,0.317 0.763,0.475 0.251,0.159 0.447,0.275 0.587,0.348 0.023,0 0.035,-0.013 0.035,-0.037 0,-0.061 -0.041,-0.167 -0.122,-0.32 -0.082,-0.153 -0.123,-0.338 -0.123,-0.558 0,-0.11 0.029,-0.223 0.088,-0.338 0.058,-0.116 0.169,-0.174 0.333,-0.174 0.081,0 0.204,0.037 0.368,0.109 0.164,0.074 0.342,0.162 0.535,0.266 0.193,0.103 0.389,0.216 0.588,0.338 0.198,0.122 0.379,0.232 0.543,0.33 0.164,0.097 0.298,0.176 0.404,0.237 0.105,0.061 0.151,0.086 0.14,0.074 -0.047,-0.098 -0.091,-0.208 -0.132,-0.33 -0.041,-0.122 -0.061,-0.238 -0.061,-0.347 0,-0.208 0.067,-0.357 0.202,-0.449 0.134,-0.091 0.307,-0.137 0.517,-0.137 0.281,0 0.599,0.061 0.956,0.183 0.357,0.122 0.701,0.268 1.035,0.439 0.333,0.171 0.634,0.351 0.903,0.54 0.269,0.189 0.462,0.351 0.579,0.485 m -13.101,-0.622 c 0.047,0.158 0.117,0.317 0.21,0.475 0.094,0.159 0.205,0.305 0.334,0.44 0.128,0.134 0.262,0.243 0.403,0.329 0.14,0.085 0.28,0.128 0.421,0.128 0.093,0 0.14,-0.037 0.14,-0.11 0,-0.146 -0.14,-0.335 -0.421,-0.567 -0.281,-0.232 -0.643,-0.464 -1.087,-0.695 M -38.805,0 -38.98,0.201 c -0.141,-0.146 -0.337,-0.317 -0.588,-0.512 -0.252,-0.196 -0.515,-0.375 -0.789,-0.54 -0.275,-0.165 -0.55,-0.305 -0.824,-0.421 -0.275,-0.116 -0.512,-0.174 -0.711,-0.174 -0.222,0 -0.374,0.049 -0.456,0.147 -0.082,0.097 -0.123,0.226 -0.123,0.384 0.234,0.134 0.471,0.274 0.711,0.421 0.239,0.146 0.453,0.295 0.64,0.448 0.187,0.152 0.339,0.299 0.456,0.439 0.117,0.14 0.175,0.265 0.175,0.375 0,0.085 -0.023,0.159 -0.07,0.22 -0.047,0.061 -0.134,0.091 -0.263,0.091 -0.164,0 -0.365,-0.058 -0.605,-0.174 -0.24,-0.116 -0.471,-0.268 -0.693,-0.457 -0.166,-0.142 -0.315,-0.301 -0.446,-0.477 -0.44,-0.367 -0.922,-0.654 -1.448,-0.858 -0.549,-0.214 -1.069,-0.351 -1.56,-0.412 0.21,0.146 0.412,0.323 0.604,0.53 0.193,0.208 0.363,0.418 0.509,0.632 0.146,0.213 0.26,0.42 0.342,0.622 0.082,0.201 0.123,0.381 0.123,0.539 0,0.281 -0.146,0.421 -0.439,0.421 -0.187,0 -0.409,-0.085 -0.666,-0.256 -0.257,-0.171 -0.637,-0.5 -1.14,-0.988 -0.07,-0.061 -0.134,-0.119 -0.193,-0.174 -0.058,-0.055 -0.123,-0.113 -0.193,-0.174 h 0.404 l 0.403,0.366 c 0.234,0.208 0.456,0.387 0.666,0.54 0.211,0.152 0.38,0.229 0.509,0.229 0.117,0 0.175,-0.067 0.175,-0.202 0,-0.134 -0.058,-0.317 -0.175,-0.548 -0.117,-0.232 -0.266,-0.461 -0.447,-0.686 -0.182,-0.226 -0.38,-0.421 -0.597,-0.586 -0.216,-0.165 -0.423,-0.253 -0.622,-0.265 -0.059,0.012 -0.105,0.042 -0.141,0.092 -0.035,0.048 -0.064,0.14 -0.087,0.274 -0.012,0.097 -0.065,0.146 -0.158,0.146 -0.093,0 -0.175,-0.036 -0.246,-0.11 -0.07,-0.073 -0.105,-0.158 -0.105,-0.256 0,-0.207 0.076,-0.357 0.228,-0.448 0.152,-0.092 0.351,-0.137 0.597,-0.137 0.268,0 0.578,0.045 0.929,0.137 0.351,0.091 0.702,0.207 1.053,0.348 0.35,0.14 0.683,0.295 0.999,0.466 0.14,0.076 0.268,0.151 0.387,0.227 -0.046,-0.14 -0.072,-0.283 -0.072,-0.428 0,-0.256 0.088,-0.455 0.263,-0.595 0.176,-0.14 0.363,-0.21 0.562,-0.21 0.269,0 0.57,0.067 0.903,0.201 0.333,0.134 0.657,0.296 0.973,0.485 0.316,0.189 0.602,0.387 0.86,0.595 0.257,0.207 0.444,0.378 0.561,0.512 m -3.613,-0.622 c 0.047,0.158 0.117,0.317 0.21,0.475 0.094,0.159 0.205,0.305 0.334,0.44 0.128,0.134 0.263,0.243 0.403,0.329 0.14,0.085 0.281,0.128 0.421,0.128 0.093,0 0.14,-0.037 0.14,-0.11 0,-0.146 -0.14,-0.335 -0.421,-0.567 -0.28,-0.232 -0.643,-0.464 -1.087,-0.695 m -6.314,0.302 c 0.036,0.042 0.059,0.131 0.071,0.265 0,0.061 -0.021,0.094 -0.062,0.101 -0.041,0.006 -0.079,0.009 -0.114,0.009 -0.023,0 -0.094,-0.003 -0.21,-0.009 -0.117,-0.007 -0.243,-0.013 -0.377,-0.019 -0.135,-0.006 -0.261,-0.012 -0.377,-0.018 -0.117,-0.006 -0.188,-0.015 -0.211,-0.027 -0.117,0 -0.339,-0.007 -0.666,-0.019 -0.328,-0.012 -0.675,-0.027 -1.044,-0.045 -0.368,-0.019 -0.71,-0.037 -1.026,-0.055 -0.315,-0.019 -0.526,-0.028 -0.631,-0.028 -0.024,0 -0.05,-0.009 -0.079,-0.027 -0.029,-0.019 -0.044,-0.071 -0.044,-0.156 0,-0.085 0.006,-0.137 0.018,-0.155 0.011,-0.019 0.029,-0.028 0.052,-0.028 0.538,0 1.105,0.028 1.701,0.083 0.597,0.055 1.193,0.082 1.789,0.082 0.257,0 0.491,-0.003 0.702,-0.009 0.21,-0.007 0.333,-0.009 0.368,-0.009 0.059,0 0.105,0.021 0.14,0.064 M -54.835,0 -55.01,0.201 c -0.152,-0.158 -0.34,-0.32 -0.561,-0.485 -0.223,-0.164 -0.459,-0.314 -0.711,-0.448 -0.251,-0.134 -0.506,-0.247 -0.763,-0.338 -0.257,-0.092 -0.491,-0.137 -0.701,-0.137 -0.246,0 -0.448,0.069 -0.605,0.21 -0.158,0.14 -0.243,0.387 -0.255,0.741 0.187,0.17 0.339,0.326 0.457,0.466 0.116,0.14 0.175,0.241 0.175,0.302 0,0.049 -0.041,0.073 -0.123,0.073 -0.187,0 -0.345,-0.079 -0.474,-0.237 -0.128,-0.159 -0.222,-0.342 -0.28,-0.549 -0.07,-0.049 -0.187,-0.135 -0.351,-0.257 -0.164,-0.122 -0.342,-0.24 -0.535,-0.356 -0.193,-0.116 -0.386,-0.22 -0.579,-0.311 -0.193,-0.092 -0.347,-0.138 -0.465,-0.138 -0.151,0 -0.227,0.08 -0.227,0.238 0,0.147 0.067,0.33 0.201,0.549 0.135,0.22 0.325,0.433 0.57,0.641 0.246,0.207 0.544,0.387 0.895,0.539 0.351,0.153 0.742,0.229 1.175,0.229 h 0.193 c 0.07,0 0.14,-0.006 0.21,-0.018 0.024,0 0.07,0.009 0.14,0.027 0.071,0.018 0.106,0.076 0.106,0.174 0,0.049 -0.024,0.097 -0.07,0.146 -0.047,0.049 -0.199,0.073 -0.456,0.073 -0.503,0 -0.962,-0.094 -1.377,-0.283 -0.415,-0.189 -0.775,-0.418 -1.079,-0.686 -0.14,-0.125 -0.265,-0.252 -0.377,-0.381 -0.104,-0.086 -0.223,-0.175 -0.359,-0.269 -0.258,-0.177 -0.529,-0.341 -0.816,-0.494 -0.287,-0.152 -0.576,-0.28 -0.868,-0.384 -0.292,-0.104 -0.544,-0.155 -0.754,-0.155 -0.187,0 -0.281,0.134 -0.281,0.402 0,0.134 0.088,0.354 0.263,0.659 0.176,0.304 0.404,0.664 0.684,1.079 0.281,0.415 0.599,0.869 0.956,1.363 0.357,0.494 0.716,0.985 1.079,1.473 0.573,-0.012 1.14,-0.025 1.701,-0.037 0.561,-0.012 1.073,-0.024 1.535,-0.036 0.461,-0.013 0.847,-0.025 1.157,-0.037 0.31,-0.012 0.494,-0.025 0.553,-0.037 0.198,0 0.327,0.031 0.385,0.092 0.059,0.061 0.088,0.146 0.088,0.256 0,0.061 -0.035,0.101 -0.105,0.119 -0.07,0.018 -0.152,0.027 -0.246,0.027 -0.713,0 -1.385,0.006 -2.017,0.019 -0.537,0.012 -1.069,0.018 -1.596,0.018 h -1.175 c 0.398,0.549 0.239,0.315 0.584,0.791 0.344,0.475 0.38,0.535 0.591,0.852 0.104,0.165 0.115,0.218 0.11,0.302 -0.003,0.057 -0.026,0.094 -0.053,0.118 -0.031,0.03 -0.082,0.042 -0.117,0.042 -0.047,0 -0.128,-0.015 -0.223,-0.108 C -59.877,5.966 -60,5.827 -60.214,5.516 -60.47,5.145 -60.615,4.927 -60.948,4.458 c -0.333,-0.47 0.074,0.097 -0.288,-0.415 -1.228,0.012 -2.333,0.024 -3.315,0.037 -0.421,0 -0.839,0.002 -1.254,0.009 -0.415,0.006 -0.795,0.009 -1.14,0.009 h -0.868 -0.439 c -0.07,0 -0.128,-0.006 -0.175,-0.018 -0.046,-0.013 -0.091,-0.031 -0.132,-0.055 -0.04,-0.025 -0.067,-0.061 -0.078,-0.11 0,-0.073 0.064,-0.131 0.193,-0.174 0.128,-0.043 0.257,-0.064 0.385,-0.064 0.375,0 0.875,0.003 1.5,0.009 0.625,0.006 1.336,0.009 2.131,0.009 0.339,0 0.76,-0.003 1.262,-0.009 0.503,-0.006 1.053,-0.015 1.649,-0.027 -0.351,-0.488 -0.693,-0.976 -1.026,-1.464 -0.333,-0.488 -0.629,-0.942 -0.886,-1.363 -0.152,-0.25 -0.286,-0.482 -0.404,-0.7 -0.135,-0.13 -0.311,-0.274 -0.534,-0.434 -0.263,-0.189 -0.541,-0.363 -0.833,-0.521 -0.292,-0.159 -0.587,-0.293 -0.886,-0.403 -0.298,-0.11 -0.552,-0.165 -0.762,-0.165 -0.305,0 -0.456,0.122 -0.456,0.366 0,0.098 0.023,0.204 0.07,0.321 0.046,0.115 0.099,0.231 0.158,0.347 0.058,0.116 0.111,0.22 0.157,0.311 0.047,0.092 0.071,0.162 0.071,0.211 0,0.036 -0.012,0.088 -0.036,0.155 -0.023,0.067 -0.058,0.1 -0.105,0.1 -0.023,0 -0.102,-0.039 -0.236,-0.118 -0.135,-0.08 -0.296,-0.18 -0.483,-0.302 -0.187,-0.122 -0.389,-0.253 -0.605,-0.393 -0.216,-0.141 -0.424,-0.272 -0.623,-0.394 -0.198,-0.122 -0.376,-0.223 -0.534,-0.302 -0.158,-0.079 -0.266,-0.118 -0.325,-0.118 -0.035,0 -0.052,0.024 -0.052,0.073 0,0.097 0.043,0.231 0.131,0.402 0.088,0.171 0.187,0.348 0.298,0.531 0.111,0.183 0.211,0.35 0.298,0.503 0.088,0.152 0.132,0.259 0.132,0.32 0,0.207 -0.07,0.311 -0.211,0.311 -0.081,0 -0.175,-0.028 -0.28,-0.083 C -69.584,0.796 -69.69,0.728 -69.795,0.649 -69.9,0.57 -69.997,0.488 -70.084,0.402 -70.172,0.317 -70.239,0.25 -70.286,0.201 -70.356,0.14 -70.42,0.082 -70.479,0.027 c -0.058,-0.055 -0.123,-0.113 -0.193,-0.174 h 0.008 c -0.058,-0.047 -0.118,-0.096 -0.183,-0.146 -0.222,-0.171 -0.462,-0.323 -0.719,-0.457 -0.257,-0.135 -0.515,-0.247 -0.772,-0.339 -0.257,-0.091 -0.491,-0.137 -0.701,-0.137 -0.246,0 -0.369,0.104 -0.369,0.311 0,0.134 0.044,0.293 0.132,0.476 0.088,0.183 0.184,0.362 0.289,0.54 0.106,0.176 0.202,0.335 0.29,0.475 0.088,0.14 0.131,0.235 0.131,0.284 0,0.036 -0.011,0.079 -0.035,0.128 -0.035,0.048 -0.076,0.073 -0.123,0.073 -0.058,0 -0.152,-0.073 -0.28,-0.219 -0.129,-0.147 -0.258,-0.33 -0.386,-0.549 -0.067,-0.116 -0.13,-0.235 -0.189,-0.359 l -0.209,-0.316 c -1.051,-0.95 -2.315,-0.902 -3.597,-0.546 0,0 0,0 0,0 v 0 0 c 0.181,0.113 0.36,0.229 0.528,0.358 1.114,0.861 1.844,2.151 2.386,3.485 v 0 c 0.002,10e-4 0.005,0.002 0.008,0.004 0.599,0.296 3.381,1.555 2.494,2.782 -0.624,0.865 -1.736,0.062 -2.131,-0.602 -0.374,-0.629 -0.56,-1.428 -0.816,-2.14 -0.051,-0.022 -0.1,-0.044 -0.144,-0.063 -1.929,-0.868 -3.9,-1.676 -5.81,-2.598 0.001,0 0.001,-0.001 0.002,-0.001 h -0.003 c 10e-4,0 10e-4,0.001 10e-4,0.001 -0.063,0.017 -0.128,0.037 -0.19,0.053 -1.131,0.275 -2.782,0.698 -3.794,-0.137 -0.421,-0.347 -0.319,-0.928 -0.026,-1.309 0.155,-0.2 0.372,-0.347 0.614,-0.463 0,0 0,0 0,0 v 0 c 0,0 0,0 0,0 -1.133,-0.712 -2.219,-1.509 -3.228,-2.444 -0.201,-0.185 0.277,-0.15 0.379,-0.056 0.943,0.874 2.004,1.668 3.114,2.389 0,0 0,0 0,0 H -84 c 0,0 0,0 -0.001,0 0.434,-0.157 0.914,-0.233 1.291,-0.296 1.621,-0.268 3.453,0.021 4.947,0.823 h 0.003 c 1.311,-0.348 2.771,-0.379 3.918,0.366 -0.024,-0.107 -0.039,-0.21 -0.039,-0.304 0,-0.158 0.038,-0.286 0.114,-0.384 0.076,-0.097 0.213,-0.146 0.412,-0.146 0.269,0 0.567,0.058 0.895,0.174 0.327,0.115 0.642,0.256 0.947,0.42 0.303,0.165 0.581,0.339 0.833,0.522 0.237,0.173 0.413,0.323 0.53,0.453 0.027,0.024 0.054,0.049 0.083,0.077 0.076,0.074 0.152,0.144 0.228,0.211 0.076,0.067 0.143,0.125 0.202,0.173 0.058,0.049 0.105,0.074 0.14,0.074 0.012,-0.012 -0.029,-0.095 -0.122,-0.247 -0.094,-0.153 -0.199,-0.327 -0.316,-0.522 -0.117,-0.195 -0.225,-0.396 -0.325,-0.603 -0.099,-0.208 -0.149,-0.379 -0.149,-0.513 0,-0.17 0.088,-0.256 0.263,-0.256 0.129,0 0.334,0.071 0.614,0.211 0.281,0.14 0.567,0.292 0.86,0.457 0.292,0.165 0.549,0.311 0.771,0.439 0.222,0.128 0.327,0.18 0.316,0.156 -0.047,-0.098 -0.091,-0.208 -0.132,-0.33 -0.041,-0.122 -0.061,-0.238 -0.061,-0.347 0,-0.208 0.067,-0.357 0.202,-0.449 0.134,-0.091 0.307,-0.137 0.517,-0.137 0.281,0 0.599,0.061 0.956,0.183 0.356,0.122 0.701,0.268 1.035,0.439 0.333,0.171 0.634,0.351 0.903,0.54 0.015,0.01 0.027,0.02 0.042,0.031 -0.108,-0.252 -0.165,-0.456 -0.165,-0.607 0,-0.196 0.059,-0.333 0.175,-0.412 0.117,-0.079 0.258,-0.119 0.421,-0.119 0.269,0 0.567,0.058 0.895,0.174 0.327,0.116 0.643,0.256 0.947,0.421 0.189,0.102 0.365,0.21 0.534,0.32 -0.098,-0.208 -0.148,-0.391 -0.148,-0.549 0,-0.305 0.163,-0.457 0.491,-0.457 0.105,0 0.24,0.033 0.403,0.1 0.164,0.067 0.339,0.156 0.526,0.266 0.187,0.11 0.383,0.234 0.588,0.375 0.204,0.14 0.394,0.283 0.57,0.43 v -0.11 c 0,-0.256 0.061,-0.482 0.184,-0.677 0.123,-0.195 0.336,-0.293 0.64,-0.293 0.269,0 0.567,0.058 0.895,0.174 0.327,0.116 0.642,0.256 0.947,0.421 0.303,0.164 0.581,0.338 0.833,0.521 0.251,0.183 0.435,0.342 0.552,0.476 m -19.523,3.204 c 0,0 0,0 0,0 0.114,0.298 0.224,0.596 0.323,0.89 0.202,0.601 0.373,1.271 0.916,1.641 0.417,0.285 0.741,-0.188 0.786,-0.535 0.12,-0.909 -1.101,-1.576 -2.025,-1.996 0,0 0,0 0,0 z m -6.95,-3.121 v 0 c -0.876,-0.434 -1.738,-0.894 -2.575,-1.401 0,0 0,0 0,0 v 0 c 0,0 0,0 0,0 -0.517,0.262 -0.88,0.666 -0.715,1.284 0.244,0.918 2.474,0.313 3.068,0.178 0.075,-0.017 0.148,-0.042 0.222,-0.061 z m 2.858,-1.009 c 0.127,-0.046 0.257,-0.089 0.389,-0.129 v 0 c -1.212,-0.631 -2.675,-0.784 -3.991,-0.703 -0.39,0.024 -1.033,0.112 -1.582,0.328 v 0 c 0.839,0.527 1.704,1.007 2.571,1.445 h 0.001 c 0.89,-0.255 1.738,-0.627 2.612,-0.941 m 0.761,0.089 v 0 0 0 c -1.013,0.316 -2.026,0.785 -2.942,1.068 v 0 c 0.259,0.126 0.518,0.252 0.775,0.37 1.587,0.73 3.246,1.324 4.832,2.059 0,0 0,10e-4 0,10e-4 V 2.66 c 0,0 0,0 0,0 -0.469,-1.134 -1.121,-2.173 -2.006,-2.998 -0.204,-0.19 -0.428,-0.351 -0.659,-0.499 m 6.825,4.093 c 0.093,0.122 0.14,0.232 0.14,0.33 0,0.109 -0.041,0.164 -0.123,0.164 -0.105,0 -0.208,-0.058 -0.307,-0.174 -0.099,-0.115 -0.149,-0.222 -0.149,-0.32 0,-0.122 0.053,-0.183 0.158,-0.183 0.093,0 0.187,0.061 0.281,0.183"
         style="fill:#1f386c;fill-opacity:1;fill-rule:nonzero;stroke:none"
         id="path232"
         inkscape:connector-curvature="0" />
    </g>
  </g>
</svg>
