<svg xmlns="http://www.w3.org/2000/svg" viewBox="0 0 581.66 164.06"><defs><style>.cls-1{fill:#fff;}</style></defs><title>setin</title><g id="Layer_2" data-name="Layer 2"><g id="Layer_1-2" data-name="Layer 1"><rect class="cls-1" x="381.39" y="2.21" width="26.82" height="112.82"/><polygon class="cls-1" points="367.9 2.27 249.69 2.27 249.69 23.72 295.42 23.72 295.42 115.02 322.28 115.02 322.28 23.72 367.9 23.72 367.9 2.27"/><path class="cls-1" d="M158.38,80V69.5H231V47.93h-72.6V23.76h78V2.3H131.51V77.92A37.12,37.12,0,0,0,168.59,115h67.76V93.55h-64.3A13.51,13.51,0,0,1,158.38,80Z"/><path class="cls-1" d="M78,47.06l-26.8-3.81c-12.82-1.78-23.11-3.68-23.11-10.54,0-7.84,14.46-11.41,27.45-11.41,25.66,0,31.65,10.49,31.65,10.49H118.2A38.05,38.05,0,0,0,103.7,11.9C92.6,4.14,77.41,0,56.12,0c-17.67,0-31.45,3-41,8.82S0,23.71,0,34.78C0,52,15.05,62.54,43.78,66.23l27.1,3.51c14.27,1.48,21.83,5.62,21.83,12,0,8.2-11.08,13.87-28.23,13.87-22.74,0-30.86-9.89-32.69-12.66H0c.79,2.77,4.35,13.06,16,21.53,12.37,9,27.22,12.76,47.81,12.76,18.23,0,32.42-3.24,42.15-9.64s14.75-16,14.75-27.76C120.76,61.66,107.16,51.26,78,47.06Z"/><path class="cls-1" d="M515.69,2.19V72.91L451.75,16.46c-8.15-7.07-14.69-14.27-26.2-14.27h-3.79V115h21.5V44.71l63.43,56c8.08,7,14.86,14.27,26.38,14.27h4.12V2.19Z"/><path class="cls-1" d="M562.81,77.35a18.75,18.75,0,0,1,13.35,5.49,18.64,18.64,0,0,1,5.5,13.35,18.46,18.46,0,0,1-2.52,9.46,18.85,18.85,0,0,1-32.65,0,18.83,18.83,0,0,1,16.32-28.3Zm.05,3.69a14.88,14.88,0,0,0-7.6,2,15.17,15.17,0,0,0-5.55,5.53,15.21,15.21,0,0,0,0,15.22,15.07,15.07,0,0,0,5.55,5.52,15.24,15.24,0,0,0,15.2,0A15.19,15.19,0,0,0,576,103.8,15.1,15.1,0,0,0,562.86,81Zm-4.48,25.25H554.3v-20h9.48a8.71,8.71,0,0,1,3.71.7,5,5,0,0,1,2.26,2,5.79,5.79,0,0,1,.77,3,5.24,5.24,0,0,1-1.43,3.66,6.4,6.4,0,0,1-4,1.87,5,5,0,0,1,2.1,1.47,26.83,26.83,0,0,1,2.12,3.28l2.37,4.05h-5L565,103.06a23.72,23.72,0,0,0-2-3.21,4.61,4.61,0,0,0-1.63-1.42,4.85,4.85,0,0,0-2-.36h-1.06Zm0-16.84v5.43h3.28a7.84,7.84,0,0,0,3.36-.56A2.33,2.33,0,0,0,566.18,92a2.14,2.14,0,0,0-1-1.87,5.59,5.59,0,0,0-3.12-.69Z"/><path class="cls-1" d="M.19,131.15h6v32.24h-6Z"/><path class="cls-1" d="M96,157.44a17.29,17.29,0,0,1-13.76,6.62c-9.65,0-17.3-7.34-17.3-16.79s7.65-16.79,17.3-16.79A17.27,17.27,0,0,1,96,137.11l-4.93,3.69a10.49,10.49,0,0,0-8.83-4.67,11.14,11.14,0,0,0,0,22.28A11,11,0,0,0,91.2,154Z"/><path class="cls-1" d="M125.87,130.48c9.65,0,17.3,7.35,17.3,16.79s-7.65,16.79-17.3,16.79-17.3-7.34-17.3-16.79S116.22,130.48,125.87,130.48Zm0,27.93a11.14,11.14,0,1,0-11-11.14A11.2,11.2,0,0,0,125.87,158.41Z"/><path class="cls-1" d="M158.84,131.15h15.35c7.19,0,11.6,4.73,11.6,11a10.25,10.25,0,0,1-7.54,9.7l8.06,11.5h-7.5l-6.72-10.17H164.8v10.17h-6Zm6,16.43h8.93c4.21,0,6.11-2.52,6.11-5.39s-1.9-5.39-6.11-5.39H164.8Z"/><path class="cls-1" d="M201.47,131.15h15.35c7.19,0,11.6,4.73,11.6,11s-4.41,11-11.6,11h-9.4v10.17h-5.95Zm5.95,16.43h8.94c4.21,0,6.1-2.52,6.1-5.39s-1.89-5.39-6.1-5.39h-8.94Z"/><path class="cls-1" d="M257.54,130.48c9.66,0,17.3,7.35,17.3,16.79s-7.64,16.79-17.3,16.79-17.29-7.34-17.29-16.79S247.89,130.48,257.54,130.48Zm0,27.93a11.14,11.14,0,1,0-11-11.14A11.21,11.21,0,0,0,257.54,158.41Z"/><path class="cls-1" d="M290.52,131.15h15.35c7.19,0,11.6,4.73,11.6,11a10.25,10.25,0,0,1-7.54,9.7l8.06,11.5h-7.5l-6.72-10.17h-7.29v10.17h-6Zm6,16.43h8.93c4.21,0,6.11-2.52,6.11-5.39s-1.9-5.39-6.11-5.39h-8.93Z"/><path class="cls-1" d="M373.72,131.15h13.61c10.88,0,17.29,7.6,17.29,16.12s-6.67,16.12-17.29,16.12H373.72Zm6,26.59h7.65c6.92,0,11.34-4.77,11.34-10.47s-4.42-10.47-11.34-10.47h-7.65Z"/><path class="cls-1" d="M434.67,130.48c9.66,0,17.3,7.35,17.3,16.79s-7.64,16.79-17.3,16.79-17.29-7.34-17.29-16.79S425,130.48,434.67,130.48Zm0,27.93a11.14,11.14,0,1,0-11-11.14A11.21,11.21,0,0,0,434.67,158.41Z"/><path class="cls-1" d="M467.65,131.15H483c7.19,0,11.6,4.73,11.6,11a10.25,10.25,0,0,1-7.54,9.7l8.05,11.5h-7.49l-6.72-10.17h-7.29v10.17h-6Zm6,16.43h8.93c4.21,0,6.11-2.52,6.11-5.39s-1.9-5.39-6.11-5.39h-8.93Z"/><path class="cls-1" d="M45.48,131.17V153.1L31,135.22c-1.79-2.25-3.54-4.05-7.12-4.05h-1.8v32h6V141.78l14.47,17.89a8.36,8.36,0,0,0,7.13,3.47h1.8v-32Z"/><path class="cls-1" d="M342.62,131.13h3.6l13.54,32.26H353.4L351,157.33H337.42L335,163.39h-6.31ZM348.87,152l-4.63-11.55L339.56,152Z"/><path class="cls-1" d="M519.75,131.13h3.6l13.54,32.26h-6.36l-2.45-6.06H514.55l-2.45,6.06h-6.31ZM526,152l-4.64-11.55L516.68,152Z"/></g></g></svg>